<mxfile host="app.diagrams.net" modified="2023-12-06T02:44:40.189Z" agent="Mozilla/5.0 (Windows NT 10.0; Win64; x64) AppleWebKit/537.36 (KHTML, like Gecko) Chrome/119.0.0.0 Safari/537.36 Edg/119.0.0.0" etag="5KRaHDnUTmIDHL83uBx1" version="22.1.5" type="github">
  <diagram name="第 1 页" id="oo20TosZBknAY6zwgMBv">
    <mxGraphModel dx="3183" dy="2057" grid="0" gridSize="10" guides="1" tooltips="1" connect="1" arrows="1" fold="1" page="0" pageScale="1" pageWidth="827" pageHeight="1169" math="0" shadow="0">
      <root>
        <mxCell id="0" />
        <mxCell id="1" parent="0" />
        <mxCell id="tXehmgnyZPaUVLWKxidh-36" style="edgeStyle=orthogonalEdgeStyle;rounded=0;orthogonalLoop=1;jettySize=auto;html=1;" edge="1" parent="1" source="tXehmgnyZPaUVLWKxidh-1">
          <mxGeometry relative="1" as="geometry">
            <mxPoint x="373" y="324" as="targetPoint" />
          </mxGeometry>
        </mxCell>
        <mxCell id="tXehmgnyZPaUVLWKxidh-1" value="begin" style="rounded=1;whiteSpace=wrap;html=1;arcSize=40;" vertex="1" parent="1">
          <mxGeometry x="313" y="249" width="120" height="37" as="geometry" />
        </mxCell>
        <mxCell id="tXehmgnyZPaUVLWKxidh-7" value="Valid Card" style="rhombus;whiteSpace=wrap;html=1;" vertex="1" parent="1">
          <mxGeometry x="338" y="472" width="80" height="40" as="geometry" />
        </mxCell>
        <mxCell id="tXehmgnyZPaUVLWKxidh-8" value="" style="edgeStyle=orthogonalEdgeStyle;html=1;align=left;verticalAlign=bottom;endArrow=open;endSize=8;rounded=0;" edge="1" source="tXehmgnyZPaUVLWKxidh-7" parent="1">
          <mxGeometry x="-1" relative="1" as="geometry">
            <mxPoint x="724" y="492" as="targetPoint" />
          </mxGeometry>
        </mxCell>
        <mxCell id="tXehmgnyZPaUVLWKxidh-116" value="no" style="edgeLabel;html=1;align=center;verticalAlign=middle;resizable=0;points=[];" vertex="1" connectable="0" parent="tXehmgnyZPaUVLWKxidh-8">
          <mxGeometry x="-0.0152" y="3" relative="1" as="geometry">
            <mxPoint as="offset" />
          </mxGeometry>
        </mxCell>
        <mxCell id="tXehmgnyZPaUVLWKxidh-9" value="" style="edgeStyle=orthogonalEdgeStyle;html=1;align=left;verticalAlign=top;endArrow=open;endSize=8;rounded=0;" edge="1" source="tXehmgnyZPaUVLWKxidh-7" parent="1">
          <mxGeometry x="-1" relative="1" as="geometry">
            <mxPoint x="378" y="572" as="targetPoint" />
          </mxGeometry>
        </mxCell>
        <mxCell id="tXehmgnyZPaUVLWKxidh-117" value="yes&lt;br&gt;" style="edgeLabel;html=1;align=center;verticalAlign=middle;resizable=0;points=[];" vertex="1" connectable="0" parent="tXehmgnyZPaUVLWKxidh-9">
          <mxGeometry x="-0.2534" relative="1" as="geometry">
            <mxPoint as="offset" />
          </mxGeometry>
        </mxCell>
        <mxCell id="tXehmgnyZPaUVLWKxidh-22" style="edgeStyle=orthogonalEdgeStyle;rounded=0;orthogonalLoop=1;jettySize=auto;html=1;" edge="1" parent="1" target="tXehmgnyZPaUVLWKxidh-15">
          <mxGeometry relative="1" as="geometry">
            <mxPoint x="375" y="610" as="sourcePoint" />
          </mxGeometry>
        </mxCell>
        <mxCell id="tXehmgnyZPaUVLWKxidh-24" style="edgeStyle=orthogonalEdgeStyle;rounded=0;orthogonalLoop=1;jettySize=auto;html=1;" edge="1" parent="1" source="tXehmgnyZPaUVLWKxidh-15" target="tXehmgnyZPaUVLWKxidh-23">
          <mxGeometry relative="1" as="geometry" />
        </mxCell>
        <mxCell id="tXehmgnyZPaUVLWKxidh-43" value="" style="edgeStyle=orthogonalEdgeStyle;rounded=0;orthogonalLoop=1;jettySize=auto;html=1;" edge="1" parent="1" source="tXehmgnyZPaUVLWKxidh-15" target="tXehmgnyZPaUVLWKxidh-42">
          <mxGeometry relative="1" as="geometry" />
        </mxCell>
        <mxCell id="tXehmgnyZPaUVLWKxidh-15" value="valid PIN" style="rhombus;whiteSpace=wrap;html=1;" vertex="1" parent="1">
          <mxGeometry x="335" y="678" width="80" height="40" as="geometry" />
        </mxCell>
        <mxCell id="tXehmgnyZPaUVLWKxidh-27" value="" style="edgeStyle=orthogonalEdgeStyle;rounded=0;orthogonalLoop=1;jettySize=auto;html=1;" edge="1" parent="1" source="tXehmgnyZPaUVLWKxidh-23" target="tXehmgnyZPaUVLWKxidh-26">
          <mxGeometry relative="1" as="geometry" />
        </mxCell>
        <mxCell id="tXehmgnyZPaUVLWKxidh-115" value="yes&lt;br&gt;" style="edgeLabel;html=1;align=center;verticalAlign=middle;resizable=0;points=[];" vertex="1" connectable="0" parent="tXehmgnyZPaUVLWKxidh-27">
          <mxGeometry x="-0.1382" y="2" relative="1" as="geometry">
            <mxPoint as="offset" />
          </mxGeometry>
        </mxCell>
        <mxCell id="tXehmgnyZPaUVLWKxidh-39" value="" style="edgeStyle=orthogonalEdgeStyle;rounded=0;orthogonalLoop=1;jettySize=auto;html=1;" edge="1" parent="1" source="tXehmgnyZPaUVLWKxidh-23" target="tXehmgnyZPaUVLWKxidh-38">
          <mxGeometry relative="1" as="geometry" />
        </mxCell>
        <mxCell id="tXehmgnyZPaUVLWKxidh-114" value="no" style="edgeLabel;html=1;align=center;verticalAlign=middle;resizable=0;points=[];" vertex="1" connectable="0" parent="tXehmgnyZPaUVLWKxidh-39">
          <mxGeometry x="-0.1834" y="1" relative="1" as="geometry">
            <mxPoint as="offset" />
          </mxGeometry>
        </mxCell>
        <mxCell id="tXehmgnyZPaUVLWKxidh-23" value="More than 3 times" style="rhombus;whiteSpace=wrap;html=1;" vertex="1" parent="1">
          <mxGeometry x="226" y="678" width="80" height="40" as="geometry" />
        </mxCell>
        <mxCell id="tXehmgnyZPaUVLWKxidh-25" value="False PIN" style="text;align=center;fontStyle=1;verticalAlign=middle;spacingLeft=3;spacingRight=3;rotatable=0;points=[[0,0.5],[1,0.5]];portConstraint=eastwest;html=1;" vertex="1" parent="1">
          <mxGeometry x="292" y="660" width="80" height="26" as="geometry" />
        </mxCell>
        <mxCell id="tXehmgnyZPaUVLWKxidh-26" value="Lock Card" style="whiteSpace=wrap;html=1;" vertex="1" parent="1">
          <mxGeometry x="122" y="800.5" width="120" height="35" as="geometry" />
        </mxCell>
        <mxCell id="tXehmgnyZPaUVLWKxidh-37" style="edgeStyle=orthogonalEdgeStyle;rounded=0;orthogonalLoop=1;jettySize=auto;html=1;entryX=0.5;entryY=0;entryDx=0;entryDy=0;" edge="1" parent="1" source="tXehmgnyZPaUVLWKxidh-32" target="tXehmgnyZPaUVLWKxidh-7">
          <mxGeometry relative="1" as="geometry" />
        </mxCell>
        <mxCell id="tXehmgnyZPaUVLWKxidh-32" value="Insert DebitCard" style="html=1;whiteSpace=wrap;" vertex="1" parent="1">
          <mxGeometry x="323" y="323" width="110" height="50" as="geometry" />
        </mxCell>
        <mxCell id="tXehmgnyZPaUVLWKxidh-41" style="edgeStyle=orthogonalEdgeStyle;rounded=0;orthogonalLoop=1;jettySize=auto;html=1;entryX=0;entryY=0.5;entryDx=0;entryDy=0;" edge="1" parent="1" source="tXehmgnyZPaUVLWKxidh-38">
          <mxGeometry relative="1" as="geometry">
            <mxPoint x="315" y="590" as="targetPoint" />
            <Array as="points">
              <mxPoint x="71" y="629" />
              <mxPoint x="72" y="629" />
              <mxPoint x="72" y="590" />
            </Array>
          </mxGeometry>
        </mxCell>
        <mxCell id="tXehmgnyZPaUVLWKxidh-38" value="Invalid PIN,Please inter PIN anew" style="whiteSpace=wrap;html=1;" vertex="1" parent="1">
          <mxGeometry x="19" y="679" width="120" height="39" as="geometry" />
        </mxCell>
        <mxCell id="tXehmgnyZPaUVLWKxidh-45" value="" style="edgeStyle=orthogonalEdgeStyle;rounded=0;orthogonalLoop=1;jettySize=auto;html=1;" edge="1" parent="1" source="tXehmgnyZPaUVLWKxidh-42" target="tXehmgnyZPaUVLWKxidh-44">
          <mxGeometry relative="1" as="geometry" />
        </mxCell>
        <mxCell id="tXehmgnyZPaUVLWKxidh-42" value="chose Transaction" style="whiteSpace=wrap;html=1;" vertex="1" parent="1">
          <mxGeometry x="315" y="811" width="120" height="46" as="geometry" />
        </mxCell>
        <mxCell id="tXehmgnyZPaUVLWKxidh-65" style="edgeStyle=orthogonalEdgeStyle;rounded=0;orthogonalLoop=1;jettySize=auto;html=1;" edge="1" parent="1" source="tXehmgnyZPaUVLWKxidh-44" target="tXehmgnyZPaUVLWKxidh-50">
          <mxGeometry relative="1" as="geometry" />
        </mxCell>
        <mxCell id="tXehmgnyZPaUVLWKxidh-44" value="Input Amount" style="whiteSpace=wrap;html=1;" vertex="1" parent="1">
          <mxGeometry x="315" y="930" width="120" height="42" as="geometry" />
        </mxCell>
        <mxCell id="tXehmgnyZPaUVLWKxidh-46" value="Insert DebitCard" style="html=1;whiteSpace=wrap;" vertex="1" parent="1">
          <mxGeometry x="320" y="566" width="110" height="50" as="geometry" />
        </mxCell>
        <mxCell id="tXehmgnyZPaUVLWKxidh-132" style="edgeStyle=orthogonalEdgeStyle;rounded=0;orthogonalLoop=1;jettySize=auto;html=1;" edge="1" parent="1" source="tXehmgnyZPaUVLWKxidh-47">
          <mxGeometry relative="1" as="geometry">
            <mxPoint x="437" y="1938" as="targetPoint" />
            <Array as="points">
              <mxPoint x="805" y="1938" />
            </Array>
          </mxGeometry>
        </mxCell>
        <mxCell id="tXehmgnyZPaUVLWKxidh-47" value="Card Not available" style="html=1;whiteSpace=wrap;" vertex="1" parent="1">
          <mxGeometry x="723" y="460" width="110" height="50" as="geometry" />
        </mxCell>
        <mxCell id="tXehmgnyZPaUVLWKxidh-70" value="" style="edgeStyle=orthogonalEdgeStyle;rounded=0;orthogonalLoop=1;jettySize=auto;html=1;" edge="1" parent="1" source="tXehmgnyZPaUVLWKxidh-50" target="tXehmgnyZPaUVLWKxidh-69">
          <mxGeometry relative="1" as="geometry" />
        </mxCell>
        <mxCell id="tXehmgnyZPaUVLWKxidh-119" value="no" style="edgeLabel;html=1;align=center;verticalAlign=middle;resizable=0;points=[];" vertex="1" connectable="0" parent="tXehmgnyZPaUVLWKxidh-70">
          <mxGeometry x="-0.0976" y="-2" relative="1" as="geometry">
            <mxPoint as="offset" />
          </mxGeometry>
        </mxCell>
        <mxCell id="tXehmgnyZPaUVLWKxidh-50" value="&lt;font style=&quot;font-size: 10px;&quot;&gt;Withdrawals exceed deposits&lt;/font&gt;" style="rhombus;whiteSpace=wrap;html=1;align=center;" vertex="1" parent="1">
          <mxGeometry x="327" y="1025" width="96" height="49" as="geometry" />
        </mxCell>
        <mxCell id="tXehmgnyZPaUVLWKxidh-64" style="edgeStyle=orthogonalEdgeStyle;rounded=0;orthogonalLoop=1;jettySize=auto;html=1;entryX=1;entryY=0.5;entryDx=0;entryDy=0;" edge="1" parent="1" source="tXehmgnyZPaUVLWKxidh-61" target="tXehmgnyZPaUVLWKxidh-42">
          <mxGeometry relative="1" as="geometry">
            <mxPoint x="580" y="799" as="targetPoint" />
            <Array as="points">
              <mxPoint x="581" y="834" />
            </Array>
          </mxGeometry>
        </mxCell>
        <mxCell id="tXehmgnyZPaUVLWKxidh-61" value="not sufficient funds" style="html=1;whiteSpace=wrap;" vertex="1" parent="1">
          <mxGeometry x="525" y="1018" width="110" height="50" as="geometry" />
        </mxCell>
        <mxCell id="tXehmgnyZPaUVLWKxidh-68" style="edgeStyle=orthogonalEdgeStyle;rounded=0;orthogonalLoop=1;jettySize=auto;html=1;entryX=0.018;entryY=0.624;entryDx=0;entryDy=0;entryPerimeter=0;" edge="1" parent="1" source="tXehmgnyZPaUVLWKxidh-50" target="tXehmgnyZPaUVLWKxidh-61">
          <mxGeometry relative="1" as="geometry" />
        </mxCell>
        <mxCell id="tXehmgnyZPaUVLWKxidh-118" value="yes&lt;br&gt;" style="edgeLabel;html=1;align=center;verticalAlign=middle;resizable=0;points=[];" vertex="1" connectable="0" parent="tXehmgnyZPaUVLWKxidh-68">
          <mxGeometry x="-0.0632" y="1" relative="1" as="geometry">
            <mxPoint x="-1" as="offset" />
          </mxGeometry>
        </mxCell>
        <mxCell id="tXehmgnyZPaUVLWKxidh-73" value="" style="edgeStyle=orthogonalEdgeStyle;rounded=0;orthogonalLoop=1;jettySize=auto;html=1;" edge="1" parent="1" source="tXehmgnyZPaUVLWKxidh-69" target="tXehmgnyZPaUVLWKxidh-72">
          <mxGeometry relative="1" as="geometry" />
        </mxCell>
        <mxCell id="tXehmgnyZPaUVLWKxidh-120" value="yes" style="edgeLabel;html=1;align=center;verticalAlign=middle;resizable=0;points=[];" vertex="1" connectable="0" parent="tXehmgnyZPaUVLWKxidh-73">
          <mxGeometry x="-0.1444" y="2" relative="1" as="geometry">
            <mxPoint as="offset" />
          </mxGeometry>
        </mxCell>
        <mxCell id="tXehmgnyZPaUVLWKxidh-112" style="edgeStyle=orthogonalEdgeStyle;rounded=0;orthogonalLoop=1;jettySize=auto;html=1;" edge="1" parent="1" source="tXehmgnyZPaUVLWKxidh-69" target="tXehmgnyZPaUVLWKxidh-44">
          <mxGeometry relative="1" as="geometry">
            <mxPoint x="260" y="957" as="targetPoint" />
            <Array as="points">
              <mxPoint x="260" y="1181" />
              <mxPoint x="260" y="957" />
            </Array>
          </mxGeometry>
        </mxCell>
        <mxCell id="tXehmgnyZPaUVLWKxidh-127" value="no" style="edgeLabel;html=1;align=center;verticalAlign=middle;resizable=0;points=[];" vertex="1" connectable="0" parent="tXehmgnyZPaUVLWKxidh-112">
          <mxGeometry x="0.0066" y="-3" relative="1" as="geometry">
            <mxPoint as="offset" />
          </mxGeometry>
        </mxCell>
        <mxCell id="tXehmgnyZPaUVLWKxidh-69" value="&lt;span style=&quot;font-size: 10px;&quot;&gt;less than single amount&amp;nbsp;&lt;/span&gt;" style="rhombus;whiteSpace=wrap;html=1;align=center;" vertex="1" parent="1">
          <mxGeometry x="324" y="1156" width="102" height="49" as="geometry" />
        </mxCell>
        <mxCell id="tXehmgnyZPaUVLWKxidh-75" value="" style="edgeStyle=orthogonalEdgeStyle;rounded=0;orthogonalLoop=1;jettySize=auto;html=1;" edge="1" parent="1" source="tXehmgnyZPaUVLWKxidh-72" target="tXehmgnyZPaUVLWKxidh-74">
          <mxGeometry relative="1" as="geometry" />
        </mxCell>
        <mxCell id="tXehmgnyZPaUVLWKxidh-121" value="yes" style="edgeLabel;html=1;align=center;verticalAlign=middle;resizable=0;points=[];" vertex="1" connectable="0" parent="tXehmgnyZPaUVLWKxidh-75">
          <mxGeometry x="-0.2035" y="1" relative="1" as="geometry">
            <mxPoint as="offset" />
          </mxGeometry>
        </mxCell>
        <mxCell id="tXehmgnyZPaUVLWKxidh-105" style="edgeStyle=orthogonalEdgeStyle;rounded=0;orthogonalLoop=1;jettySize=auto;html=1;" edge="1" parent="1" source="tXehmgnyZPaUVLWKxidh-72">
          <mxGeometry relative="1" as="geometry">
            <mxPoint x="260" y="1177" as="targetPoint" />
          </mxGeometry>
        </mxCell>
        <mxCell id="tXehmgnyZPaUVLWKxidh-126" value="no" style="edgeLabel;html=1;align=center;verticalAlign=middle;resizable=0;points=[];" vertex="1" connectable="0" parent="tXehmgnyZPaUVLWKxidh-105">
          <mxGeometry x="0.3368" y="-2" relative="1" as="geometry">
            <mxPoint as="offset" />
          </mxGeometry>
        </mxCell>
        <mxCell id="tXehmgnyZPaUVLWKxidh-72" value="&lt;span style=&quot;font-size: 10px;&quot;&gt;ATM has sufficient&lt;br&gt;funds to&amp;nbsp; provide&lt;br&gt;&lt;/span&gt;" style="rhombus;whiteSpace=wrap;html=1;align=center;" vertex="1" parent="1">
          <mxGeometry x="327" y="1283" width="96" height="49" as="geometry" />
        </mxCell>
        <mxCell id="tXehmgnyZPaUVLWKxidh-81" style="edgeStyle=orthogonalEdgeStyle;rounded=0;orthogonalLoop=1;jettySize=auto;html=1;entryX=0.5;entryY=0;entryDx=0;entryDy=0;" edge="1" parent="1" source="tXehmgnyZPaUVLWKxidh-74" target="tXehmgnyZPaUVLWKxidh-76">
          <mxGeometry relative="1" as="geometry" />
        </mxCell>
        <mxCell id="tXehmgnyZPaUVLWKxidh-122" value="yes" style="edgeLabel;html=1;align=center;verticalAlign=middle;resizable=0;points=[];" vertex="1" connectable="0" parent="tXehmgnyZPaUVLWKxidh-81">
          <mxGeometry x="0.2125" y="1" relative="1" as="geometry">
            <mxPoint as="offset" />
          </mxGeometry>
        </mxCell>
        <mxCell id="tXehmgnyZPaUVLWKxidh-103" style="edgeStyle=orthogonalEdgeStyle;rounded=0;orthogonalLoop=1;jettySize=auto;html=1;" edge="1" parent="1" source="tXehmgnyZPaUVLWKxidh-74">
          <mxGeometry relative="1" as="geometry">
            <mxPoint x="262" y="1303" as="targetPoint" />
          </mxGeometry>
        </mxCell>
        <mxCell id="tXehmgnyZPaUVLWKxidh-125" value="no" style="edgeLabel;html=1;align=center;verticalAlign=middle;resizable=0;points=[];" vertex="1" connectable="0" parent="tXehmgnyZPaUVLWKxidh-103">
          <mxGeometry x="0.2529" relative="1" as="geometry">
            <mxPoint as="offset" />
          </mxGeometry>
        </mxCell>
        <mxCell id="tXehmgnyZPaUVLWKxidh-74" value="Transaction&lt;br&gt;succedd" style="whiteSpace=wrap;html=1;" vertex="1" parent="1">
          <mxGeometry x="315" y="1406.5" width="120" height="40.5" as="geometry" />
        </mxCell>
        <mxCell id="tXehmgnyZPaUVLWKxidh-83" value="" style="edgeStyle=orthogonalEdgeStyle;rounded=0;orthogonalLoop=1;jettySize=auto;html=1;" edge="1" parent="1" source="tXehmgnyZPaUVLWKxidh-76" target="tXehmgnyZPaUVLWKxidh-82">
          <mxGeometry relative="1" as="geometry" />
        </mxCell>
        <mxCell id="tXehmgnyZPaUVLWKxidh-124" value="yes" style="edgeLabel;html=1;align=center;verticalAlign=middle;resizable=0;points=[];" vertex="1" connectable="0" parent="tXehmgnyZPaUVLWKxidh-83">
          <mxGeometry x="-0.1677" y="1" relative="1" as="geometry">
            <mxPoint as="offset" />
          </mxGeometry>
        </mxCell>
        <mxCell id="tXehmgnyZPaUVLWKxidh-99" style="edgeStyle=orthogonalEdgeStyle;rounded=0;orthogonalLoop=1;jettySize=auto;html=1;" edge="1" parent="1" source="tXehmgnyZPaUVLWKxidh-76" target="tXehmgnyZPaUVLWKxidh-84">
          <mxGeometry relative="1" as="geometry">
            <mxPoint x="513" y="1831" as="targetPoint" />
            <Array as="points">
              <mxPoint x="484" y="1570" />
              <mxPoint x="484" y="1831" />
            </Array>
          </mxGeometry>
        </mxCell>
        <mxCell id="tXehmgnyZPaUVLWKxidh-123" value="no" style="edgeLabel;html=1;align=center;verticalAlign=middle;resizable=0;points=[];" vertex="1" connectable="0" parent="tXehmgnyZPaUVLWKxidh-99">
          <mxGeometry x="0.0925" relative="1" as="geometry">
            <mxPoint as="offset" />
          </mxGeometry>
        </mxCell>
        <mxCell id="tXehmgnyZPaUVLWKxidh-76" value="whether to print vouchers" style="rhombus;whiteSpace=wrap;html=1;" vertex="1" parent="1">
          <mxGeometry x="333.5" y="1539" width="83" height="61" as="geometry" />
        </mxCell>
        <mxCell id="tXehmgnyZPaUVLWKxidh-85" value="" style="edgeStyle=orthogonalEdgeStyle;rounded=0;orthogonalLoop=1;jettySize=auto;html=1;" edge="1" parent="1" source="tXehmgnyZPaUVLWKxidh-82" target="tXehmgnyZPaUVLWKxidh-84">
          <mxGeometry relative="1" as="geometry" />
        </mxCell>
        <mxCell id="tXehmgnyZPaUVLWKxidh-82" value="print vouchers" style="whiteSpace=wrap;html=1;" vertex="1" parent="1">
          <mxGeometry x="315" y="1672" width="120" height="41" as="geometry" />
        </mxCell>
        <mxCell id="tXehmgnyZPaUVLWKxidh-87" value="" style="edgeStyle=orthogonalEdgeStyle;rounded=0;orthogonalLoop=1;jettySize=auto;html=1;" edge="1" parent="1" source="tXehmgnyZPaUVLWKxidh-84" target="tXehmgnyZPaUVLWKxidh-86">
          <mxGeometry relative="1" as="geometry" />
        </mxCell>
        <mxCell id="tXehmgnyZPaUVLWKxidh-84" value="withdraw Transaction&amp;nbsp;&lt;br&gt;ends" style="whiteSpace=wrap;html=1;" vertex="1" parent="1">
          <mxGeometry x="315" y="1785" width="120" height="60" as="geometry" />
        </mxCell>
        <mxCell id="tXehmgnyZPaUVLWKxidh-86" value="return card" style="whiteSpace=wrap;html=1;fontColor=#000000;" vertex="1" parent="1">
          <mxGeometry x="315" y="1918" width="120" height="60" as="geometry" />
        </mxCell>
      </root>
    </mxGraphModel>
  </diagram>
</mxfile>
